<?xml version="1.0" encoding="UTF-8" standalone="no"?>
<svg
   xmlns:dc="http://purl.org/dc/elements/1.1/"
   xmlns:cc="http://creativecommons.org/ns#"
   xmlns:rdf="http://www.w3.org/1999/02/22-rdf-syntax-ns#"
   xmlns:svg="http://www.w3.org/2000/svg"
   xmlns="http://www.w3.org/2000/svg"
   xmlns:sodipodi="http://sodipodi.sourceforge.net/DTD/sodipodi-0.dtd"
   xmlns:inkscape="http://www.inkscape.org/namespaces/inkscape"
   version="1.1"
   id="svg2"
   xml:space="preserve"
   width="864"
   height="672"
   viewBox="0 0 864 672"
   sodipodi:docname="dragon-1529443.ai"><metadata
     id="metadata8"><rdf:RDF><cc:Work
         rdf:about=""><dc:format>image/svg+xml</dc:format><dc:type
           rdf:resource="http://purl.org/dc/dcmitype/StillImage" /></cc:Work></rdf:RDF></metadata><defs
     id="defs6"><clipPath
       clipPathUnits="userSpaceOnUse"
       id="clipPath18"><path
         d="M 0,504 H 648 V 0 H 0 Z"
         id="path16" /></clipPath></defs><sodipodi:namedview
     pagecolor="#ffffff"
     bordercolor="#666666"
     borderopacity="1"
     objecttolerance="10"
     gridtolerance="10"
     guidetolerance="10"
     inkscape:pageopacity="0"
     inkscape:pageshadow="2"
     inkscape:window-width="640"
     inkscape:window-height="480"
     id="namedview4" /><g
     id="g10"
     inkscape:groupmode="layer"
     inkscape:label="dragon-1529443"
     transform="matrix(1.3333333,0,0,-1.3333333,0,672)"><g
       id="g12"><g
         id="g14"
         clip-path="url(#clipPath18)"><g
           id="g20"
           transform="translate(226.9873,443.6045)"><path
             d="m 0,0 c 4.937,-2.271 9.364,-5.239 12.963,-9.351 2.722,-3.109 4.741,-6.622 5.922,-10.6 0.225,-0.762 0.541,-1.497 0.776,-2.257 0.181,-0.582 0.297,-1.184 0.446,-1.774 0.059,-0.234 0.13,-0.464 0.197,-0.696 v -0.921 c -0.069,-0.327 -0.143,-0.653 -0.203,-0.981 -0.105,-0.563 -0.388,-0.849 -0.888,-0.881 -0.485,-0.03 -0.902,0.227 -1.041,0.728 -0.114,0.411 -0.174,0.842 -0.202,1.269 -0.075,1.111 -0.777,1.914 -1.365,2.761 -0.148,0.214 -0.519,0.319 -0.808,0.384 -2.207,0.49 -3.548,1.971 -4.451,3.917 -0.334,0.718 -0.557,1.495 -0.767,2.262 -0.388,1.413 -1.088,2.655 -1.927,3.843 -2.006,2.84 -4.464,5.221 -7.338,7.156 -0.883,0.596 -1.874,1.045 -2.849,1.486 -3.843,1.738 -4.093,-4.339 -8.159,-3.29 0,0 43.018,-53.305 36.637,-63.59 -2.68,-4.319 0.231,6.431 -5.43,7.931 -5.311,1.406 -1.705,9.671 -5.25,8.75 -3.173,-0.825 -15.327,9.815 -19.25,8.904 -5.57,-1.292 8.563,-33.323 -0.437,-67.823 -0.849,-3.255 -2.892,-8.908 -5.25,-10 -0.919,-0.427 2.157,5.626 1.25,6.25 -4,2.75 0.336,4.697 0.25,7 -0.813,21.919 -16.375,26.954 -16.48,24.919 -0.583,-11.334 -26.634,-65.157 -33.333,-65.667 -2.02,-0.153 5.277,7.646 4.333,10.667 -1.666,5.333 1.974,7.742 3.334,12 12.666,39.666 -21.334,28.333 -21.334,28.333 0,0 -5.176,-5.662 -8.659,-11.594 l -1.621,-0.853 c -2.173,-4.092 -4.566,-8.069 -7.331,-11.793 -2.339,-3.149 -4.484,-6.45 -7.105,-9.384 -1.359,-1.521 -2.865,-2.866 -4.791,-3.646 -0.397,-0.161 -0.802,-0.355 -1.217,-0.4 -0.407,-0.045 -0.857,0.009 -1.244,0.147 -0.427,0.151 -0.57,0.577 -0.349,0.987 0.2,0.368 0.473,0.721 0.789,0.993 0.511,0.437 1.078,0.809 1.63,1.198 0.89,0.625 1.629,1.381 2.22,2.302 1.359,2.117 2.743,4.217 4.133,6.314 0.274,0.414 0.373,0.757 0.145,1.263 -0.375,0.831 -0.319,1.74 -0.162,2.626 0.07,0.391 0.181,0.777 0.308,1.155 1.375,4.11 2.333,8.324 3.039,12.593 0.335,2.025 0.532,4.072 0.331,6.139 -0.097,0.994 -0.558,1.736 -1.304,2.335 -1.557,1.251 -3.342,2.052 -5.262,2.539 -1.885,0.478 -3.806,0.566 -5.752,0.516 -3.784,-0.097 -7.281,-1.331 -10.756,-2.625 -2.961,-1.102 -5.827,-2.43 -8.588,-3.979 -3.867,-2.169 -7.266,-4.899 -10.123,-8.298 -0.367,-0.437 -0.624,-0.896 -0.7,-1.466 -0.158,-1.183 -0.331,-2.362 -0.507,-3.542 -0.238,-1.586 1.026,-2.22 2.193,-2.4 0.58,-0.088 1.21,0.073 1.807,0.182 0.426,0.078 0.813,0.13 1.251,-0.013 2.566,-0.835 6.009,1.304 5.842,4.273 -0.009,0.183 0.002,0.369 -0.004,0.553 -0.058,1.55 -0.944,2.796 -2.232,2.998 -1.722,0.267 -3.092,-0.091 -3.867,-1.863 -0.256,-0.587 -0.443,-1.205 -0.688,-1.879 -0.475,0.568 -0.534,1.203 -0.526,1.83 0.025,2.101 0.976,3.711 2.736,4.815 0.477,0.299 1.063,0.516 1.621,0.579 1.764,0.2 3.339,-0.327 4.668,-1.507 0.857,-0.762 1.347,-1.727 1.435,-2.891 0.164,-2.162 -0.349,-4.142 -1.563,-5.933 -0.483,-0.71 -0.997,-1.399 -1.521,-2.08 -0.877,-1.14 -2.004,-1.978 -3.274,-2.63 -2.046,-1.05 -4.24,-1.59 -6.507,-1.87 -2.964,-0.367 -5.94,-0.409 -8.911,-0.171 -2.923,0.234 -5.729,1.021 -8.454,2.08 -1.085,0.422 -2.131,0.94 -3.203,1.397 -1.257,0.537 -2.365,1.282 -3.314,2.272 -2.528,2.636 -5.048,5.279 -7.271,8.184 -3.024,3.95 -5.315,8.311 -7.191,12.902 -1.772,4.336 -2.987,8.83 -3.625,13.466 -0.225,1.628 -0.397,3.277 -0.111,4.947 0.18,1.05 0.139,2.141 0.163,3.214 0.07,3.291 0.555,6.536 1.054,9.78 0.384,2.496 0.511,4.997 0.231,7.518 -0.342,3.087 -0.298,6.182 -0.111,9.277 0.08,1.313 0.672,2.403 1.592,3.326 1.518,1.521 3.032,3.044 4.549,4.565 1.46,1.463 2.734,3.067 3.762,4.864 0.196,0.344 0.428,0.677 0.692,0.971 2.858,3.167 5.735,6.316 8.965,9.117 2.952,2.559 6.079,4.874 9.486,6.797 1.521,0.859 3.061,1.687 4.585,2.543 0.317,0.177 0.649,0.371 0.893,0.633 1.73,1.852 2.949,3.996 3.469,6.489 0.186,0.894 0.256,1.823 0.29,2.74 0.069,1.838 -0.642,3.338 -2.087,4.491 -1.638,1.307 -3.541,2.062 -5.515,2.665 -0.702,0.216 -1.415,0.434 -2.138,0.534 -0.627,0.086 -1.288,0.084 -1.914,-0.013 -3.374,-0.521 -6.759,-0.793 -10.175,-0.671 -2.783,0.1 -5.489,0.513 -8.032,1.729 -0.548,0.263 -1.168,0.371 -1.738,0.595 -1.994,0.785 -3.993,1.561 -5.965,2.401 -0.753,0.322 -1.487,0.5 -2.307,0.473 -2.43,-0.079 -4.822,-0.465 -7.211,-0.86 -1.874,-0.311 -3.741,-0.668 -5.611,-1.011 -1.231,-0.226 -2.454,-0.533 -3.695,-0.669 -0.965,-0.106 -1.954,-0.008 -2.932,0.01 -0.396,0.007 -0.799,0.102 -1.186,0.054 -1.432,-0.181 -2.663,0.252 -3.763,1.138 -0.238,0.192 -0.493,0.375 -0.693,0.604 -1.391,1.593 -2.776,3.191 -4.148,4.801 -0.339,0.398 -0.561,0.865 -0.505,1.452 0.375,-0.018 0.725,-0.035 1.163,-0.057 -0.105,0.341 -0.189,0.593 -0.259,0.849 -0.048,0.175 -0.136,0.372 -0.095,0.53 0.047,0.182 0.188,0.387 0.347,0.473 0.083,0.045 0.34,-0.105 0.434,-0.23 0.204,-0.267 0.342,-0.58 0.524,-0.864 0.154,-0.242 0.332,-0.47 0.636,-0.631 -0.19,0.638 -0.4,1.271 -0.563,1.915 -0.104,0.412 -0.169,0.841 -0.197,1.266 -0.023,0.337 0.026,0.699 0.402,0.854 0.379,0.156 0.671,-0.052 0.872,-0.336 0.424,-0.598 0.828,-1.212 1.21,-1.839 0.304,-0.501 0.283,-0.513 0.841,-0.81 0.02,0.193 0.045,0.37 0.052,0.548 0.017,0.431 0.162,0.797 0.596,0.943 0.452,0.153 0.772,-0.125 1.03,-0.437 0.252,-0.307 0.455,-0.654 0.677,-0.985 0.168,-0.253 0.333,-0.508 0.482,-0.735 0.108,0 0.193,-0.026 0.22,0.004 0.773,0.837 1.255,0.881 1.908,-0.027 0.624,-0.866 1.356,-1.135 2.411,-1.107 2.804,0.075 5.563,0.427 8.288,1.06 1.252,0.29 2.496,0.623 3.73,0.986 0.546,0.16 1.054,0.446 1.735,0.742 -1.206,1.152 -2.024,2.45 -3.401,3.212 -2.034,1.126 -4.25,1.714 -6.455,2.372 -2.849,0.85 -5.72,0.963 -8.646,0.612 -0.834,-0.099 -1.713,-0.214 -2.5,0.374 0.188,0.512 0.635,0.666 1.054,0.815 1.798,0.638 3.645,1.165 5.547,1.239 4.874,0.192 9.751,0.323 14.628,0.37 1.863,0.018 3.727,-0.299 5.595,-0.397 2.572,-0.137 5.147,-0.22 7.722,-0.306 0.295,-0.01 0.611,0.064 0.889,0.172 1.114,0.433 2.216,0.892 3.322,1.349 0.078,0.032 0.137,0.112 0.305,0.255 -0.456,0.499 -0.866,1.025 -1.36,1.454 -0.19,0.164 -0.571,0.154 -0.863,0.147 -2.484,-0.057 -4.966,-0.15 -7.449,-0.195 -2.889,-0.054 -5.768,0.138 -8.622,0.576 -2.672,0.41 -5.286,1.07 -7.797,2.094 -0.367,0.149 -0.72,0.305 -1.148,0.157 -2.544,-0.877 -5.191,-0.839 -7.825,-0.792 -0.966,0.016 -1.576,-0.288 -1.942,-1.163 -0.142,-0.338 -0.335,-0.656 -0.524,-0.971 -0.184,-0.31 -0.452,-0.5 -0.835,-0.46 -0.424,0.044 -0.701,0.319 -0.757,0.695 -0.069,0.472 -0.016,0.961 -0.125,1.508 -0.257,-0.434 -0.516,-0.868 -0.774,-1.303 -0.407,-0.687 -0.771,-0.933 -1.192,-0.808 -0.479,0.142 -0.768,0.628 -0.705,1.353 0.051,0.6 0.198,1.192 0.23,1.816 -0.486,-0.659 -0.834,-1.384 -1.017,-2.183 -0.102,-0.447 -0.139,-0.909 -0.24,-1.357 -0.081,-0.365 -0.226,-0.717 -0.656,-0.803 -0.461,-0.093 -0.773,0.163 -0.991,0.519 -0.522,0.845 -0.604,1.802 -0.532,2.754 0.049,0.666 0.272,1.317 0.384,1.98 0.031,0.182 0.006,0.473 -0.109,0.56 -0.271,0.203 -0.445,-0.056 -0.567,-0.268 -0.322,-0.557 -0.64,-1.116 -0.931,-1.689 -0.178,-0.349 -0.369,-0.663 -0.811,-0.62 -0.435,0.042 -0.652,0.379 -0.695,0.752 -0.06,0.508 -0.091,1.039 -0.003,1.537 0.105,0.596 0.347,1.167 0.538,1.775 -0.214,0.268 -0.398,0.366 -0.749,0.11 -0.681,-0.498 -1.287,-0.287 -1.369,0.537 -0.107,1.087 -0.146,2.182 0.437,3.218 0.762,1.351 1.779,2.425 3.14,3.137 1.439,0.751 2.893,1.48 4.384,2.118 1.576,0.674 3.23,1.166 4.8,1.853 1.568,0.687 3.117,0.451 4.692,0.17 1.72,-0.306 3.43,-0.693 5.161,-0.901 2.383,-0.287 4.794,-0.411 7.097,0.449 1.023,0.382 1.962,0.991 2.934,1.506 0.269,0.143 0.501,0.381 0.784,0.466 1.933,0.587 3.865,1.186 5.818,1.702 4.127,1.091 8.351,1.313 12.595,1.28 1.071,-0.007 2.143,-0.146 3.215,-0.14 1.07,0.007 2.138,0.125 3.209,0.184 2.02,0.113 4.04,0.229 6.061,0.324 1.025,0.047 2.004,-0.178 2.97,-0.521 0.359,-0.128 0.774,-0.155 1.16,-0.138 1.745,0.08 3.488,0.222 5.233,0.286 1.716,0.064 3.338,-0.343 4.9,-1.058 0.488,-0.224 1.054,-0.313 1.594,-0.38 2.043,-0.254 4.057,-0.628 6.017,-1.27 1.474,-0.482 2.823,-1.176 4.001,-2.203 0.263,-0.229 0.623,-0.38 0.964,-0.483 1.302,-0.397 2.549,-0.88 3.589,-1.8 0.169,-0.15 0.434,-0.272 0.654,-0.27 1.368,0.016 2.511,-0.491 3.496,-1.499 1.724,0.746 3.405,0.78 4.966,-0.361 1.111,0.813 2.213,0.471 3.277,0.05 0.418,-0.165 0.757,-0.29 1.205,-0.113 1,0.394 1.921,-0.042 2.889,-0.373 1.125,0.923 2.31,0.675 3.515,0.035 0.106,0.259 0.18,0.491 0.295,0.703 0.343,0.643 0.978,0.988 1.688,0.795 0.49,-0.134 0.768,0.026 1.143,0.302 1.291,0.951 2.244,2.162 3.001,3.555 0.262,0.485 0.562,0.951 0.869,1.41 0.267,0.399 0.612,0.704 1.145,0.596 0.541,-0.108 0.701,-0.533 0.802,-1.005 0.237,-1.092 0.014,-2.137 -0.355,-3.155 -0.464,-1.282 -1.187,-2.418 -2.041,-3.476 -0.207,-0.254 -0.413,-0.544 -0.506,-0.852 -0.386,-1.278 -0.611,-1.488 -2.021,-1.665 -0.418,-0.845 -1.113,-1.278 -2.124,-1.228 -0.214,0.012 -0.523,-0.207 -0.649,-0.407 -0.952,-1.51 -1.329,-1.66 -2.908,-1.118 -0.389,-0.345 -0.724,-0.705 -1.118,-0.98 -0.874,-0.607 -1.87,-0.756 -2.902,-0.589 -0.356,0.057 -0.629,0.02 -0.943,-0.174 -1.127,-0.696 -2.288,-0.854 -3.497,-0.024 -0.606,-0.388 -1.216,-0.779 -1.866,-1.197 0.08,-0.122 0.125,-0.231 0.204,-0.308 4.214,-4.092 6.908,-9.056 8.23,-14.74 0.819,-3.518 1.759,-7.029 2.042,-10.648 0.458,-5.843 0.424,-11.65 -1.542,-17.286 -1.863,-5.342 -4.703,-10.109 -8.399,-14.369 -0.929,-1.072 -1.794,-2.169 -2.498,-3.403 -1.293,-2.264 -2.643,-4.496 -3.931,-6.763 -1.066,-1.876 -1.864,-3.859 -2.21,-6.011 -0.643,-3.996 0.016,-7.696 2.458,-10.994 0.233,-0.316 0.492,-0.658 0.82,-0.853 2.995,-1.793 6.24,-2.658 9.741,-2.527 1.39,0.052 2.63,0.547 3.794,1.266 2.765,1.708 5.233,3.778 7.236,6.336 3.376,4.314 6.288,8.92 8.556,13.923 1.942,4.28 2.941,8.77 3.072,13.451 0.06,2.208 0.119,4.428 -0.048,6.625 -0.167,2.195 -0.548,4.38 -0.957,6.547 -1.332,7.05 -2.755,14.082 -3.808,21.182 -0.058,0.394 -0.127,0.79 -0.233,1.173 -1.269,4.546 -2.529,9.095 -3.831,13.632 -0.399,1.388 -0.41,2.79 -0.295,4.192 0.043,0.522 0.307,1.066 0.596,1.52 1.26,1.979 3.063,3.254 5.344,3.767 0.728,0.163 1.046,0.491 1.141,1.184 0.114,0.831 0.145,1.619 -0.267,2.413 -0.719,1.385 -0.775,2.901 -0.553,4.404 0.085,0.577 0.393,1.17 0.743,1.653 1.456,2.018 3.419,3.335 5.85,3.868 0.734,0.161 1.527,0.129 2.286,0.078 0.769,-0.052 1.362,-0.531 1.858,-1.095 0.52,-0.593 0.362,-1.067 -0.358,-1.406 -0.882,-0.415 -1.764,-0.846 -2.588,-1.363 -0.853,-0.534 -1.047,-1.468 -1.154,-2.393 -0.017,-0.155 0.156,-0.395 0.307,-0.492 0.279,-0.181 0.61,-0.283 0.917,-0.423 2.189,-1.003 3.307,-2.744 3.498,-5.113 0.045,-0.549 0.053,-1.103 0.076,-1.655 0.028,-0.698 0.216,-0.933 0.868,-1.075 0.119,-0.026 0.244,-0.032 0.367,-0.037 l 12.744,-4.568 z"
             style="fill:#231f20;fill-opacity:1;fill-rule:evenodd;stroke:none"
             id="path22" /></g></g></g></g></svg>
